<svg xmlns="http://www.w3.org/2000/svg" xmlns:xlink="http://www.w3.org/1999/xlink" width="578.5095388097544" height="339.29229488312694" viewBox="0 0 578.5095388097544 339.29229488312694" fill="none"><defs><linearGradient id="linear_0" x1="73.74199999999999%" y1="24.879%" x2="43.602000000000004%" y2="50%" gradientUnits="objectBoundingBox"><stop offset="0" stop-color="#35286B" stop-opacity="0.5231" /><stop offset="1" stop-color="#000000" stop-opacity="1" /></linearGradient><linearGradient id="linear_1" x1="60.42531070627294%" y1="26.564%" x2="47.27523213547048%" y2="37.632%" gradientUnits="objectBoundingBox"><stop offset="0" stop-color="#1A123B" stop-opacity="0.3" /><stop offset="1" stop-color="#161536" stop-opacity="1" /></linearGradient><linearGradient id="linear_2" x1="50.03202891234485%" y1="69.80926112427781%" x2="18.506965797297845%" y2="94.36315907315021%" gradientUnits="objectBoundingBox"><stop offset="0" stop-color="#35286B" stop-opacity="0.5231" /><stop offset="1" stop-color="#000000" stop-opacity="1" /></linearGradient><path id="path_0"
        transform="translate(6.177580277174017 29.518399404657316) rotate(23 82.16423199161267 32.52681195238797)"
        d="M8.69,44.68L0,65.05L155.75,20.88L164.33,0z" /><linearGradient id="linear_3" x1="0%" y1="122.31099999999999%" x2="100%" y2="50%" gradientUnits="objectBoundingBox"><stop offset="0" stop-color="#FC9A79" stop-opacity="1" /><stop offset="1" stop-color="#D16443" stop-opacity="1" /></linearGradient><linearGradient id="linear_4" x1="38.81%" y1="100%" x2="126.663%" y2="-78.358%" gradientUnits="objectBoundingBox"><stop offset="0" stop-color="#964F33" stop-opacity="1" /><stop offset="1" stop-color="#BA5E3A" stop-opacity="0" /></linearGradient><linearGradient id="linear_5" x1="110.078%" y1="93.133%" x2="7.745%" y2="7.1%" gradientUnits="objectBoundingBox"><stop offset="0" stop-color="#C76038" stop-opacity="1" /><stop offset="1" stop-color="#AD5431" stop-opacity="1" /></linearGradient><path id="path_1"
        transform="translate(25.207314686950504 43.50722197553634) rotate(23 129.84838797198944 90.93115118603491)"
        d="M0,43.08L104.81,181.86L259.7,136.77L155.6,0z" /><linearGradient id="linear_6" x1="25.272%" y1="9.929%" x2="85.407%" y2="67.039%" gradientUnits="objectBoundingBox"><stop offset="0" stop-color="#2C2854" stop-opacity="1" /><stop offset="1" stop-color="#302E4D" stop-opacity="1" /></linearGradient><linearGradient id="linear_7" x1="66.491%" y1="100%" x2="83.664%" y2="20.547%" gradientUnits="objectBoundingBox"><stop offset="0" stop-color="#222136" stop-opacity="0.3615" /><stop offset="1" stop-color="#222136" stop-opacity="1" /></linearGradient><linearGradient id="linear_8" x1="66.491%" y1="101.82488560070493%" x2="83.664%" y2="20.921959244376847%" gradientUnits="objectBoundingBox"><stop offset="0" stop-color="#222136" stop-opacity="0.3615" /><stop offset="1" stop-color="#222136" stop-opacity="1" /></linearGradient><linearGradient id="linear_9" x1="0%" y1="50%" x2="100%" y2="50%" gradientUnits="objectBoundingBox"><stop offset="0" stop-color="#000000" stop-opacity="0.5" /><stop offset="1" stop-color="#292323" stop-opacity="0.5" /></linearGradient><rect id="path_2" x="0" y="0" width="100" height="100" /><linearGradient id="linear_10" x1="67.097%" y1="0%" x2="68.097%" y2="59.47%" gradientUnits="objectBoundingBox"><stop offset="0" stop-color="#626FD1" stop-opacity="0.4077" /><stop offset="1" stop-color="#423358" stop-opacity="0.0154" /></linearGradient><linearGradient id="linear_11" x1="3.9207560313360026%" y1="-19.29976678451933%" x2="71.53689131955242%" y2="97.99241447089013%" gradientUnits="objectBoundingBox"><stop offset="0" stop-color="#626FD1" stop-opacity="0.4077" /><stop offset="1" stop-color="#423358" stop-opacity="0.0154" /></linearGradient><linearGradient id="linear_12" x1="0%" y1="54.313521653963335%" x2="87.14727786921544%" y2="54.313521653963335%" gradientUnits="objectBoundingBox"><stop offset="0" stop-color="#7A9451" stop-opacity="0.16150000000000003" /><stop offset="1" stop-color="#CCE89E" stop-opacity="0.2" /></linearGradient><linearGradient id="linear_13" x1="-83.55478213315455%" y1="21.020106723835035%" x2="97.09272305696946%" y2="175.97575457964936%" gradientUnits="objectBoundingBox"><stop offset="0" stop-color="#626FD1" stop-opacity="0.4077" /><stop offset="1" stop-color="#423358" stop-opacity="0.0154" /></linearGradient><linearGradient id="linear_14" x1="-94.02971969799665%" y1="118.27121654796863%" x2="138.79841021625228%" y2="118.27121654796863%" gradientUnits="objectBoundingBox"><stop offset="0" stop-color="#B05A3F" stop-opacity="1" /><stop offset="1" stop-color="#DB8360" stop-opacity="0.2" /></linearGradient><linearGradient id="linear_15" x1="50%" y1="100%" x2="51%" y2="0%" gradientUnits="objectBoundingBox"><stop offset="0" stop-color="#FF764D" stop-opacity="1" /><stop offset="1" stop-color="#FF997A" stop-opacity="1" /></linearGradient><linearGradient id="linear_16" x1="19.654481751214988%" y1="80.05662309959924%" x2="89.85%" y2="67.231%" gradientUnits="objectBoundingBox"><stop offset="0" stop-color="#626FD1" stop-opacity="0.4077" /><stop offset="1" stop-color="#423358" stop-opacity="0.0308" /></linearGradient><path id="path_3"
        transform="translate(0 0) rotate(0 74.8 113.86964285714286)"
        d="M0,0L6.68,177.65L149.6,227.74L149.6,54.76z" /><linearGradient id="linear_17" x1="22.305%" y1="14.628%" x2="85.966%" y2="86.842%" gradientUnits="objectBoundingBox"><stop offset="0" stop-color="#E35E29" stop-opacity="1" /><stop offset="1" stop-color="#FF8657" stop-opacity="1" /></linearGradient><linearGradient id="linear_18" x1="85.211%" y1="53.13838825426189%" x2="50%" y2="18.203336706673642%" gradientUnits="objectBoundingBox"><stop offset="0" stop-color="#E35E29" stop-opacity="1" /><stop offset="1" stop-color="#E36432" stop-opacity="1" /></linearGradient><linearGradient id="linear_19" x1="89.061%" y1="94.489%" x2="64.369%" y2="35.965%" gradientUnits="objectBoundingBox"><stop offset="0" stop-color="#8A3919" stop-opacity="0.48" /><stop offset="1" stop-color="#D15F32" stop-opacity="1" /></linearGradient><path id="path_4"
        transform="translate(0 0) rotate(0 63.44642857142857 119.2125)"
        d="M0,238.43L120.21,179.86L126.89,0L0,65.45z" /><linearGradient id="linear_20" x1="27.208%" y1="89.79899999999999%" x2="100%" y2="15.912%" gradientUnits="objectBoundingBox"><stop offset="0" stop-color="#7B4DE8" stop-opacity="1" /><stop offset="1" stop-color="#8862E3" stop-opacity="1" /></linearGradient><linearGradient id="linear_21" x1="25.922%" y1="100%" x2="26.922%" y2="50%" gradientUnits="objectBoundingBox"><stop offset="0" stop-color="#62499E" stop-opacity="0.0692" /><stop offset="1" stop-color="#6D51AD" stop-opacity="1" /></linearGradient><linearGradient id="linear_22" x1="31.63661740573681%" y1="70.88263976377908%" x2="32.636617405736814%" y2="35.44131988188954%" gradientUnits="objectBoundingBox"><stop offset="0" stop-color="#62499E" stop-opacity="0.0692" /><stop offset="1" stop-color="#6D51AD" stop-opacity="1" /></linearGradient><linearGradient id="linear_23" x1="84.904%" y1="61.063%" x2="40.632000000000005%" y2="28.932000000000002%" gradientUnits="objectBoundingBox"><stop offset="0" stop-color="#62499E" stop-opacity="0.0692" /><stop offset="1" stop-color="#6D51AD" stop-opacity="1" /></linearGradient><linearGradient id="linear_24" x1="30.972%" y1="58.471%" x2="100%" y2="50%" gradientUnits="objectBoundingBox"><stop offset="0" stop-color="#FF9D7E" stop-opacity="0.2" /><stop offset="1" stop-color="#FF9A79" stop-opacity="0" /></linearGradient><linearGradient id="linear_25" x1="0%" y1="50%" x2="100%" y2="50%" gradientUnits="objectBoundingBox"><stop offset="0" stop-color="#FF8863" stop-opacity="1" /><stop offset="1" stop-color="#FFB196" stop-opacity="1" /></linearGradient><linearGradient id="linear_26" x1="0%" y1="50%" x2="100%" y2="21.188000000000002%" gradientUnits="objectBoundingBox"><stop offset="0" stop-color="#AD5AE0" stop-opacity="1" /><stop offset="1" stop-color="#BD6FED" stop-opacity="1" /></linearGradient><linearGradient id="linear_27" x1="28.211100375252222%" y1="136.34666882678053%" x2="29.211100375252222%" y2="68.17333441339026%" gradientUnits="objectBoundingBox"><stop offset="0" stop-color="#62499E" stop-opacity="0.0692" /><stop offset="1" stop-color="#6D51AD" stop-opacity="1" /></linearGradient><linearGradient id="linear_28" x1="0%" y1="13.931%" x2="50%" y2="100%" gradientUnits="objectBoundingBox"><stop offset="0" stop-color="#FF8863" stop-opacity="1" /><stop offset="1" stop-color="#FFB196" stop-opacity="1" /></linearGradient><linearGradient id="linear_29" x1="100%" y1="87.074%" x2="0%" y2="0%" gradientUnits="objectBoundingBox"><stop offset="0" stop-color="#FF8A5C" stop-opacity="1" /><stop offset="1" stop-color="#F27441" stop-opacity="1" /></linearGradient><linearGradient id="linear_30" x1="57.81683881557108%" y1="88.54110462486244%" x2="33.92568965014557%" y2="29.890002858264918%" gradientUnits="objectBoundingBox"><stop offset="0" stop-color="#E35E29" stop-opacity="0.5" /><stop offset="1" stop-color="#E36432" stop-opacity="1" /></linearGradient><linearGradient id="linear_31" x1="88.765%" y1="80.902%" x2="17.136000000000003%" y2="10.204%" gradientUnits="objectBoundingBox"><stop offset="0" stop-color="#E35E29" stop-opacity="0.5" /><stop offset="1" stop-color="#E36432" stop-opacity="1" /></linearGradient><linearGradient id="linear_32" x1="77.57068384640652%" y1="69.21565611127247%" x2="49.35690681754409%" y2="69.21565611127247%" gradientUnits="objectBoundingBox"><stop offset="0" stop-color="#372F6E" stop-opacity="1" /><stop offset="1" stop-color="#372F6E" stop-opacity="1" /></linearGradient><linearGradient id="linear_33" x1="55.14136769281306%" y1="44.74097039782544%" x2="-1.2861863649118146%" y2="44.74097039782544%" gradientUnits="objectBoundingBox"><stop offset="0" stop-color="#372F6E" stop-opacity="1" /><stop offset="1" stop-color="#372F6E" stop-opacity="1" /></linearGradient><linearGradient id="linear_34" x1="68.551%" y1="28.7%" x2="100%" y2="91.07600000000001%" gradientUnits="objectBoundingBox"><stop offset="0" stop-color="#7E8EDE" stop-opacity="1" /><stop offset="1" stop-color="#5A649C" stop-opacity="1" /></linearGradient><linearGradient id="linear_35" x1="86.015%" y1="85.679%" x2="36.485%" y2="12.91%" gradientUnits="objectBoundingBox"><stop offset="0" stop-color="#763A9C" stop-opacity="1" /><stop offset="1" stop-color="#B970E6" stop-opacity="1" /></linearGradient><linearGradient id="linear_36" x1="86.015%" y1="85.679%" x2="36.485%" y2="12.91%" gradientUnits="objectBoundingBox"><stop offset="0" stop-color="#AD5AE0" stop-opacity="1" /><stop offset="1" stop-color="#BD6FED" stop-opacity="1" /></linearGradient></defs><g opacity="1" transform="translate(0 0)  rotate(0 289.2547694048772 169.64614744156356)"><path id="并集" fill-rule="evenodd" fill="url(#linear_0)" transform="translate(34.728571428571286 254.47129488312711)  rotate(0 204.028 42.4105)" opacity="0.2" d="M267.14,0l96.17,30.72l44.75,16.03l-20.33658,2.92742l12.01372,3.61126c0,0 -135.83,21.44 -186.02,28.19c-7.91,1.06 -13.36,-1.34 -13.36,-1.34l0.2564,-3.52711l-57.02354,8.20844l-143.59,-54.1z " /><path id="路径 3" fill-rule="evenodd" fill="url(#linear_1)" transform="translate(34.728571428571286 219.0748663116986)  rotate(0 254.28597657607116 60.107142857142826)" opacity="0.13" d="M0,66.12L143.59,120.21L205.37,109.59L243.96,92.13L508.57,49.87L384.69,0z " /><g opacity="1" transform="translate(118.990032612462 29.27066052154239)  rotate(0 229.75975309864623 144.07764360851598)"><path id="路径 3" fill-rule="evenodd" fill="url(#linear_2)" transform="translate(236.37675310182382 132.59590669022606)  rotate(0 111.57137654773435 56.69892440175106)" opacity="0.1" d="M0,36.66L20.65,113.4L223.14,70.89L159.85,0z " /><g opacity="1" transform="translate(53.68359170551207 0)  rotate(0 88.34181226878671 62.04521135704528)"><mask id="mask-0" fill="white"><use xlink:href="#path_0"></use></mask><g mask="url(#mask-0)"><path id="路径 2" fill-rule="evenodd" fill="url(#linear_3)" transform="translate(6.177580277174017 29.518399404657316)  rotate(23 82.16423199161267 32.52681195238797)" opacity="1" d="M8.69,44.68L0,65.05L155.75,20.88L164.33,0z " /></g><g mask="url(#mask-0)"><path id="路径 6" fill-rule="evenodd" fill="url(#linear_4)" transform="translate(99.66440368740436 55.263714198751195)  rotate(0 39.11721946115138 11.323173271830765)" opacity="1" d="M78.23,8.59C78.23,8.59 58.47,3.5 41.73,0L8.33,3.5L0,22.65L37.41,22.65z " /></g></g><path id="路径 2" fill-rule="evenodd" fill="url(#linear_5)" transform="translate(187.1809593404964 76.54335796711983)  rotate(23 56.31206627413627 78.83426521697267)" opacity="1" d="M0,20.91L103.97,157.67L112.62,137.51L8.58,0z " /><g opacity="1" transform="translate(0 19.278540893889463)  rotate(0 155.05570265893996 134.43837316157126)"><mask id="mask-1" fill="white"><use xlink:href="#path_1"></use></mask><g mask="url(#mask-1)"><path id="路径 2" fill-rule="evenodd" fill="url(#linear_6)" transform="translate(25.207314686950504 43.50722197553634)  rotate(23 129.84838797198944 90.93115118603491)" opacity="1" d="M0,43.08L104.81,181.86L259.7,136.77L155.6,0z " /></g><g mask="url(#mask-1)"><path id="路径 2" fill-rule="evenodd" fill="url(#linear_7)" transform="translate(102.27564285714284 177.58321428571426)  rotate(23 82.16423199161267 32.52681195238797)" opacity="0.68" d="M8.69,44.68L0,65.05L155.75,20.88L164.33,0z " /></g><g mask="url(#mask-1)"><path id="路径 12" fill-rule="evenodd" fill="url(#linear_8)" transform="translate(51.67799999999999 48.102999999999994)  rotate(0 95.0146155928749 91.05416566092634)" opacity="1" d="M0,0L0,116.3L119.08,182.11L173.7,159.38L190.03,96.75L160.91,0z " /></g></g></g><g opacity="1" transform="translate(0 0)  rotate(0 169.30178571428573 167.68369998314716)"><path id="路径 2" fill-rule="evenodd" fill="url(#linear_9)" transform="translate(28.050000000000004 40.17454282343709)  rotate(0 138.24642857142857 61.10892857142856)" opacity="1" d="M276.49,56.77L127.56,0L0,67.45L149.6,122.22z " /><g opacity="1" transform="translate(102.18214285714288 27.5454306827805)  rotate(0 84.15 70.686)"><g opacity="1" transform="translate(0 0)  rotate(0 84.15 70.686)"><path id="矩形 1" fill-rule="evenodd" style="fill:#FFFFFF" transform="translate(0 0)  rotate(0 84.15 70.686)" opacity="1" d="M5.501711049407895e-16,132.38702400000003C1.7763568394002505e-15,137.3492892223957 4.022710777604315,141.372 8.984975999999994,141.372L159.31502400000002,141.372C164.2772892223957,141.372 168.3,137.3492892223957 168.3,132.38702400000003L168.3,8.984976000000001C168.3,4.022710777604315 164.27728922239572,0 159.31502400000002,-3.552713678800501e-15L8.984976000000001,0C6.602012203987453,-1.7763568394002505e-15 4.316648401084126,0.9466286821191101 2.6316385416016157,2.6316385416016184C0.9466286821191066,4.3166484010841275 -3.552713678800501e-15,6.602012203987455 -3.552713678800501e-15,8.984976000000003z " /><path id="矩形 1" fill-rule="evenodd" style="fill:#3377FF" transform="translate(8.976 24.684)  rotate(0 75.174 53.856)" opacity="1" d="M3.4385694058799344e-16,102.09639C0,103.58574237250784 0.591642926324444,105.01409474932242 1.6447740885010127,106.067225911499C2.6979052506775814,107.12035707367556 4.126257627492161,107.712 5.615610000000003,107.712L144.73239,107.712C146.22174237250786,107.712 147.65009474932242,107.12035707367556 148.703225911499,106.067225911499C149.75635707367556,105.01409474932242 150.348,103.58574237250784 150.348,102.09639L150.348,5.61561C150.348,4.126257627492156 149.75635707367556,2.697905250677576 148.703225911499,1.6447740885010087C147.65009474932242,0.5916429263244414 146.22174237250783,-1.7763568394002505e-15 144.73239,-8.881784197001252e-16L5.61561,0C4.126257627492159,-1.7763568394002505e-15 2.697905250677579,0.5916429263244423 1.644774088501011,1.6447740885010105C0.5916429263244432,2.6979052506775787 -8.881784197001252e-16,4.1262576274921585 -8.881784197001252e-16,5.61561z " /><g opacity="1" transform="translate(48.817857142857065 27.454569317219466)  rotate(0 50 50)"><mask id="bg-mask-2" fill="white"><use xlink:href="#path_2"></use></mask><g mask="url(#bg-mask-2)" ><path id="路径 1" fill-rule="evenodd" style="fill:#3377FF" transform="translate(-0.000007814827419849735 -0.000009279713556686886)  rotate(0 50.000359762245495 49.99999927167407)" opacity="1" d="M50,0.01C18.97,-0.47 -0.47,18.97 0.01,50C-0.47,81.03 18.97,100.47 50,99.99C81.03,100.47 100.49,81.03 99.99,50C100.47,18.97 81.03,-0.47 50,0.01Z " /><path id="路径 2" fill-rule="evenodd" style="fill:#336DFF" transform="translate(19.997456317492055 19.997681780205248)  rotate(0 39.92693551312863 39.926822049350676)" opacity="1" d="M40,0.01C15.19,-0.39 -0.39,15.18 0.01,40C-0.37,63.24 13.25,78.33 35.32,79.85C61.5,78.25 78.25,61.5 79.85,35.34C78.33,13.25 63.24,-0.35 40,0.01Z " /><path id="路径 3" fill-rule="evenodd" style="fill:#3364FF" transform="translate(39.99608585757965 39.996084392737274)  rotate(0 29.58767982511613 29.58767982511614)" opacity="1" d="M30,0.01C11.38,-0.29 -0.29,11.38 0.01,30C-0.23,45.6 8,56.28 21.5,59.18C42.12,55.82 55.82,42.12 59.18,21.52C56.28,8 45.6,-0.23 30,0.01Z " /><path id="路径 4" fill-rule="evenodd" style="fill:#80AAFF" transform="translate(14.872749771108625 41.061856311921446)  rotate(0 19.050035922303046 15.687117156539369)" opacity="1" d="M3.99,31.37L34.11,31.37C35.57,31.37 36.91,30.57 37.61,29.29C38.31,28.01 38.26,26.45 37.47,25.22L22.41,1.82C21.67,0.68 20.4,0 19.04,0C17.69,0 16.42,0.7 15.69,1.84L0.63,25.22C-0.16,26.45 -0.21,28.01 0.49,29.29C1.19,30.57 2.53,31.37 3.99,31.37Z " /><path id="路径 5" fill-rule="evenodd" style="fill:#335AFF" transform="translate(59.99397283258155 59.99448700149244)  rotate(0 18.71888750949029 18.718629692612797)" opacity="1" d="M20,0C7.58,-0.2 -0.2,7.58 0,20C-0.14,28.1 3.16,34.22 8.9,37.44C22.64,33.4 33.39,22.66 37.44,8.92C34.22,3.16 28.1,-0.12 20,0Z " /><path id="路径 6" fill-rule="evenodd" style="fill:#FFFFFF" transform="translate(33.189566372566084 30.353750153608296)  rotate(0 25.988829916496226 21.041170235696168)" opacity="1" d="M51.49,40C52.19,38.72 52.13,37.15 51.34,35.92L29.35,1.83C28.61,0.69 27.35,0 25.99,0C24.63,0 23.37,0.69 22.63,1.83L0.63,35.92C-0.16,37.15 -0.21,38.72 0.49,40C1.19,41.28 2.53,42.08 3.99,42.08L47.99,42.08C49.45,42.08 50.79,41.28 51.49,40Z " /><path id="路径 7" fill-rule="evenodd" style="fill:#FFFFFF" transform="translate(28.923654589843366 23.76454970703051)  rotate(0 4.99913115234375 4.99913115234375)" opacity="1" d="M5,10C7.76,10 10,7.76 10,5C10,2.24 7.76,0 5,0C2.24,0 0,2.24 0,5C0,7.76 2.24,10 5,10Z " /></g></g></g><path id="矩形 2" fill-rule="evenodd" fill="url(#linear_10)" transform="translate(-88.06901595516626 10.37170235402831)  rotate(-12 83.33933513040262 82.14642857142857)" opacity="1" d="M2.4909801719142134e-16,160.2247806588405C0,161.29840119594877 0.4303995386882331,162.32721056588048 1.1948942845383752,163.0810068521994C1.9593890303885173,163.83480313851837 2.9941614600246247,164.25066189029272 4.067675388668951,164.23553235932454L161.61577173852268,162.01513377938926C162.84090175206725,161.99786745243682 163.99095243916105,161.42159900117687 164.73816597729206,160.4505616154044C165.4853795154231,159.47952422963195 165.7477996032197,158.2202237856063 165.4506380269755,157.03155365737973L135.6622797724001,37.875732525830614C134.9854489004309,35.168354776864405 133.4784383947686,32.74061350607283 131.35247107899207,30.932781302272446L99.28,3.66L4.158938481234147,0.15333777579706337C3.0702196336507797,0.11319731031289049 2.0120070954784826,0.5176358390286926 1.227580119792433,1.2736744001276485C0.44315314410638296,2.029712961226604 1.4210854715202004e-14,3.072305686274836 1.3322676295501878e-14,4.161764261004753z " /><path id="矩形 2" fill-rule="evenodd" fill="url(#linear_11)" transform="translate(40.51 70.55)  rotate(-12 70.3076085245744 55.56424561911686)" opacity="1" d="M36.98820758982794,87.67029030612946C37.54544981866971,88.71558080402552 38.53621755461702,89.46111833017541 39.694948814573145,89.70707156515482L127.9080152953895,108.43124844567883C129.62911285916923,108.79657000742115 131.387377334306,107.9976390126338 132.24422152094107,106.46093646908415C133.10106570757614,104.92423392553448 132.85644798655687,103.00852338645942 131.6409488621555,101.7364390550954L39.882590512816,5.7064480953168335C38.04074587607093,3.7788599496945743 35.66468987540971,2.4459174122432454 33.05961760057424,1.8788317327082549L24.43,0L2.75440414888173,16.224891107949123C1.1696975871546784,17.411169039643244 0.6873520657930783,19.576134154971523 1.6185768035721622,21.322951462463507z " /><path id="矩形 2" fill-rule="evenodd" fill="url(#linear_12)" transform="translate(40.51 70.55)  rotate(-12 70.3076085245744 55.56424561911686)" opacity="1" d="M36.98820758982794,87.67029030612946C37.54544981866971,88.71558080402552 38.53621755461702,89.46111833017541 39.694948814573145,89.70707156515482L127.9080152953895,108.43124844567883C129.62911285916923,108.79657000742115 131.387377334306,107.9976390126338 132.24422152094107,106.46093646908415C133.10106570757614,104.92423392553448 132.85644798655687,103.00852338645942 131.6409488621555,101.7364390550954L39.882590512816,5.7064480953168335C38.04074587607093,3.7788599496945743 35.66468987540971,2.4459174122432454 33.05961760057424,1.8788317327082549L24.43,0L2.75440414888173,16.224891107949123C1.1696975871546784,17.411169039643244 0.6873520657930783,19.576134154971523 1.6185768035721622,21.322951462463507z " /><path id="矩形 2" fill-rule="evenodd" fill="url(#linear_13)" transform="translate(131.02710764192557 31.436817850862198)  rotate(-12 26.31604994923824 42.05881914379671)" opacity="0.35" d="M40.294763459750676,56.16780762498252C40.68853627884714,55.677664584530746 40.961575388640256,55.10181962302503 41.09184931320136,54.48673756529457L52.63,0L45.11,11.5L0,80.33L15.42553163067447,83.60435865372715C16.906395408474975,83.91912603272304 18.43832275019855,83.37329714407873 19.386510997204496,82.19305349147079z " /><path id="矩形 2" fill-rule="evenodd" fill="url(#linear_14)" transform="translate(131.02710764192557 31.436817850862198)  rotate(-12 26.31604994923824 42.05881914379671)" opacity="0.35" d="M40.294763459750676,56.16780762498252C40.68853627884714,55.677664584530746 40.961575388640256,55.10181962302503 41.09184931320136,54.48673756529457L52.63,0L45.11,11.5L0,80.33L15.42553163067447,83.60435865372715C16.906395408474975,83.91912603272304 18.43832275019855,83.37329714407873 19.386510997204496,82.19305349147079z " /></g><g opacity="1" transform="translate(255.4687142857143 -2.2404553090888726)  rotate(21 16.028571428571414 120.21428571428572)"><path id="矩形 5" fill-rule="evenodd" fill="url(#linear_15)" transform="translate(0 0)  rotate(0 16.028571428571414 120.21428571428572)" opacity="1" d="M2.0055750000000003,0C1.4736634383900569,-4.440892098500626e-16 0.9635375895277067,0.21130104511587255 0.5874193173217896,0.5874193173217899C0.21130104511587233,0.963537589527707 -4.440892098500626e-16,1.4736634383900569 -4.440892098500626e-16,2.0055750000000003L1.2280605020999767e-16,238.42299500000001C4.440892098500626e-16,239.5306434871419 0.8979265128581031,240.42857 2.0055749999999937,240.42857L30.051564999999997,240.42857C31.159213487141887,240.42857 32.05713999999999,239.5306434871419 32.05714,238.42299500000001L32.05714,2.0055750000000003C32.05714,1.4736634383900558 31.845838954884123,0.9635375895277061 31.469720682678204,0.5874193173217892C31.09360241047229,0.2113010451158721 30.583476561609938,-8.881784197001252e-16 30.051564999999997,-4.440892098500626e-16z " /><path id="矩形 6" fill-rule="evenodd" style="fill:#0A0605" transform="translate(2.0035714285714286 10.017857142857144)  rotate(0 4.007142857142857 1.0017857142857143)" opacity="0.18" d="M8.01,2L8.01,0L0,0L0,2L8.01,2Z " /><path id="矩形 6" fill-rule="evenodd" style="fill:#0A0605" transform="translate(2.0035714285714286 46.08214285714286)  rotate(0 4.007142857142857 1.0017857142857143)" opacity="0.18" d="M0,2L8.01,2L8.01,0L0,0L0,2Z " /><path id="矩形 6" fill-rule="evenodd" style="fill:#0A0605" transform="translate(2.0035714285714286 82.14642857142857)  rotate(0 4.007142857142857 1.0017857142857143)" opacity="0.18" d="M0,0L0,2L8.01,2L8.01,0L0,0Z " /><path id="矩形 6" fill-rule="evenodd" style="fill:#0A0605" transform="translate(2.0035714285714286 118.21071428571427)  rotate(0 4.007142857142857 1.0017857142857143)" opacity="0.18" d="M0,2L8.01,2L8.01,0L0,0L0,2Z " /><path id="矩形 6" fill-rule="evenodd" style="fill:#0A0605" transform="translate(2.0035714285714286 154.275)  rotate(0 4.007142857142857 1.0017857142857143)" opacity="0.18" d="M0,2L8.01,2L8.01,0L0,0L0,2Z " /><path id="矩形 6" fill-rule="evenodd" style="fill:#0A0605" transform="translate(2.0035714285714286 190.3392857142857)  rotate(0 4.007142857142857 1.0017857142857143)" opacity="0.18" d="M0,0L0,2L8.01,2L8.01,0L0,0Z " /><path id="矩形 6" fill-rule="evenodd" style="fill:#0A0605" transform="translate(2.0035714285714286 226.4035714285714)  rotate(0 4.007142857142857 1.0017857142857143)" opacity="0.18" d="M0,2L8.01,2L8.01,0L0,0L0,2Z " /><path id="矩形 6" fill-rule="evenodd" style="fill:#0A0605" transform="translate(2.0035714285714286 28.050000000000004)  rotate(0 4.007142857142857 1.0017857142857143)" opacity="0.18" d="M8.01,2L8.01,0L0,0L0,2L8.01,2Z " /><path id="矩形 6" fill-rule="evenodd" style="fill:#0A0605" transform="translate(2.0035714285714286 64.11428571428571)  rotate(0 4.007142857142857 1.0017857142857143)" opacity="0.18" d="M0,2L8.01,2L8.01,0L0,0L0,2Z " /><path id="矩形 6" fill-rule="evenodd" style="fill:#0A0605" transform="translate(2.0035714285714286 100.17857142857143)  rotate(0 4.007142857142857 1.0017857142857143)" opacity="0.18" d="M0,2L8.01,2L8.01,0L0,0L0,2Z " /><path id="矩形 6" fill-rule="evenodd" style="fill:#0A0605" transform="translate(2.0035714285714286 136.24285714285716)  rotate(0 4.007142857142857 1.0017857142857143)" opacity="0.18" d="M0,2L8.01,2L8.01,0L0,0L0,2Z " /><path id="矩形 6" fill-rule="evenodd" style="fill:#0A0605" transform="translate(2.0035714285714286 172.3071428571429)  rotate(0 4.007142857142857 1.0017857142857143)" opacity="0.18" d="M0,0L0,2L8.01,2L8.01,0L0,0Z " /><path id="矩形 6" fill-rule="evenodd" style="fill:#0A0605" transform="translate(2.0035714285714286 208.37142857142854)  rotate(0 4.007142857142857 1.0017857142857143)" opacity="0.18" d="M0,2L8.01,2L8.01,0L0,0L0,2Z " /></g><g opacity="1" transform="translate(22.47727093965742 38.55171639706623)  rotate(0 66.96961181970255 75.6116587289606)"><g opacity="1" transform="translate(12.472468962559695 9.894515871817731)  rotate(-12 54.497142857142855 65.71714285714287)"><g opacity="1" transform="translate(0 0)  rotate(0 54.497142857142855 65.71714285714287)"><path id="矩形 2" fill-rule="evenodd" style="fill:#FC4949" transform="translate(0 0)  rotate(0 54.497142857142855 65.71714285714286)" opacity="1" d="M1.9648968033599627e-16,128.22537C0,129.07642849857595 0.338081672185397,129.8926298567557 0.9398709077148655,130.49441909228517C1.5416601432443342,131.09620832781462 2.3578615014240945,131.43429000000003 3.2089200000000053,131.43429000000003L105.78537,131.43429C106.63642849857591,131.43429000000003 107.45262985675566,131.09620832781462 108.05441909228513,130.49441909228517C108.65620832781461,129.8926298567557 108.99429,129.07642849857592 108.99429,128.22537000000003L108.99,27.25L81.68,0L3.2089200000000146,0.000010000000003174137C2.3578615014241056,0.000010000000003174137 1.541660143244346,0.33809167218539926 0.9398709077148784,0.9398809077148669C0.33808167218541074,1.5416701432443345 1.4210854715202004e-14,2.357871501424093 1.4210854715202004e-14,3.2089300000000027z " /><path  id="矩形 2" style="stroke:#999999; stroke-width:1; stroke-opacity:1; stroke-dasharray:0 0" transform="translate(0 0)  rotate(0 54.497142857142855 65.71714285714286)" d="M1.9648968033599627e-16,128.22537C0,129.07642849857595 0.338081672185397,129.8926298567557 0.9398709077148655,130.49441909228517C1.5416601432443342,131.09620832781462 2.3578615014240945,131.43429000000003 3.2089200000000053,131.43429000000003L105.78537,131.43429C106.63642849857591,131.43429000000003 107.45262985675566,131.09620832781462 108.05441909228513,130.49441909228517C108.65620832781461,129.8926298567557 108.99429,129.07642849857592 108.99429,128.22537000000003L108.99,27.25L81.68,0L3.2089200000000146,0.000010000000003174137C2.3578615014241056,0.000010000000003174137 1.541660143244346,0.33809167218539926 0.9398709077148784,0.9398809077148669C0.33808167218541074,1.5416701432443345 1.4210854715202004e-14,2.357871501424093 1.4210854715202004e-14,3.2089300000000027z " /><path id="矩形 3" fill-rule="evenodd" style="fill:#FFFFFF" transform="translate(81.7457142857143 0)  rotate(0 13.624285714285714 13.624285714285714)" opacity="1" d="M1.9648968033599627e-16,24.03965C8.881784197001252e-16,25.81188757942703 1.4366824205729705,27.24857 3.208919999999999,27.24857L27.25,27.25L0,0z " /><path  id="矩形 3" style="stroke:#999999; stroke-width:1; stroke-opacity:1; stroke-dasharray:0 0" transform="translate(81.7457142857143 0)  rotate(0 13.624285714285714 13.624285714285714)" d="M1.9648968033599627e-16,24.03965C8.881784197001252e-16,25.81188757942703 1.4366824205729705,27.24857 3.208919999999999,27.24857L27.25,27.25L0,0z " /></g></g><path id="路径 4" fill-rule="evenodd" fill="url(#linear_16)" transform="translate(10.151428571428577 70.33871428571429)  rotate(0 65.76128959049987 28.395183164222317)" opacity="1" d="M1.07,3.21L93.05,56.79L131.52,41.3L0,0z " /></g><path id="分组 1" fill-rule="evenodd" style="fill:#FFFFFF" transform="translate(60.03052160244147 84.25898848612957)  rotate(-12.871655547497003 29.5 12.442601470016696)" opacity="1" d="M8.84 0.61C8.72 0.44 8.58 0.29 8.41 0.17C8.24 0.06 8.05 0 7.84 0C7.53 0 7.29 0.06 7.11 0.19C6.92 0.31 6.76 0.48 6.64 0.67C6.51 0.87 6.4 1.08 6.32 1.31C6.24 1.54 6.15 1.76 6.05 1.96C5.99 2.08 5.89 2.16 5.76 2.2C5.62 2.25 5.47 2.29 5.29 2.33C5.1 2.37 4.92 2.42 4.73 2.48C4.54 2.54 4.36 2.65 4.2 2.79C4.04 2.93 3.91 3.13 3.81 3.39C3.64 3.87 3.61 4.39 3.71 4.89C3.78 5.2 4 5.46 4.29 5.58C4.45 5.65 4.65 5.69 4.89 5.69C4.97 5.69 5.04 5.7 5.08 5.72C5.13 5.74 5.16 5.79 5.16 5.87C5.16 5.91 5.15 5.95 5.14 5.98C4.95 6.76 4.73 7.52 4.48 8.25L3.76 10.39L3.07 12.4C2.85 13.05 2.66 13.67 2.51 14.26C2.18 15.5 1.87 16.75 1.57 17.99L1 20.33C0.86 20.92 0.67 21.48 0.43 22.03L0.19 22.56C0.11 22.71 0.06 22.88 0.02 23.05C0 23.1 0 23.16 0 23.21L0 23.38C0 23.53 0.02 23.7 0.06 23.88C0.11 24.05 0.17 24.22 0.25 24.37C0.34 24.52 0.44 24.64 0.57 24.74C0.7 24.84 0.85 24.89 1.02 24.89C1.28 24.89 1.52 24.8 1.75 24.64C1.98 24.48 2.18 24.29 2.35 24.07C2.53 23.84 2.68 23.6 2.81 23.35C2.93 23.1 3.02 22.88 3.07 22.69C3.22 22.13 3.34 21.61 3.44 21.15L3.73 19.76C3.82 19.29 3.93 18.81 4.04 18.3C4.15 17.8 4.31 17.21 4.5 16.53C4.54 16.39 4.67 16.31 4.9 16.28L5.31 16.22C6.45 16 7.6 15.76 8.78 15.51C9.95 15.25 11.09 14.94 12.21 14.57C13.33 14.2 14.41 13.75 15.45 13.2C16.48 12.66 17.43 11.99 18.3 11.19C18.61 10.91 18.89 10.59 19.14 10.24C19.39 9.89 19.55 9.51 19.63 9.1L19.73 8.59C19.82 8.17 19.86 7.76 19.86 7.37C19.86 6.61 19.67 5.94 19.3 5.35C18.93 4.76 18.44 4.25 17.85 3.81C17.26 3.38 16.6 3.02 15.86 2.75C15.13 2.48 14.39 2.27 13.66 2.14C12.25 1.9 10.82 1.76 9.39 1.73L9.15 1.18C9.07 0.98 8.96 0.79 8.84 0.61Z M17.6997 7.8086C17.6997 7.5686 17.6697 7.3486 17.6097 7.1586C17.5497 6.9686 17.4697 6.7886 17.3997 6.6386C17.0997 6.1586 16.7397 5.7886 16.2997 5.5086C15.8597 5.2386 15.3797 5.0386 14.8697 4.8986C14.3497 4.7586 13.8097 4.6686 13.2397 4.6386C12.6797 4.5986 12.1197 4.5786 11.5797 4.5786C11.4297 4.5786 11.2097 4.5886 10.9097 4.6086C10.6097 4.6286 10.2997 4.6486 9.96974 4.6786C9.64974 4.7086 9.33974 4.7486 9.06974 4.7886C8.78974 4.8386 8.59974 4.8886 8.49974 4.9486C8.44974 4.9786 8.40974 5.0186 8.37974 5.0886C8.33974 5.1586 8.31974 5.2186 8.29974 5.2686L7.97974 6.0786C7.83974 6.4186 7.68974 6.8086 7.53974 7.2386C7.37974 7.6686 7.21974 8.1286 7.04974 8.5986C6.87974 9.0786 6.70974 9.5486 6.55974 9.9986L6.12974 11.2786C6.01974 11.5986 5.91974 11.9186 5.82974 12.2386L5.74974 12.4986C5.67974 12.7086 5.62974 12.9186 5.57974 13.1286C5.55974 13.1986 5.54974 13.2586 5.54974 13.3286C5.54974 13.3786 5.55974 13.4186 5.56974 13.4486C5.58974 13.4886 5.61974 13.5086 5.66974 13.5086C5.69974 13.5086 5.78974 13.4886 5.93974 13.4686C6.09974 13.4386 6.28974 13.4086 6.50974 13.3686C6.72974 13.3286 6.96974 13.2886 7.21974 13.2386C7.46974 13.1886 7.70974 13.1386 7.94974 13.0886C9.36974 12.7786 10.7697 12.3586 12.1397 11.8586C12.8497 11.5986 13.5397 11.3186 14.1897 11.0186C14.8397 10.7086 15.4297 10.3886 15.9297 10.0486C16.4697 9.6886 16.8997 9.3286 17.2197 8.9686C17.5397 8.5986 17.6997 8.2186 17.6997 7.8086Z M24.5219 23.3335C24.9619 23.2435 25.3719 23.1435 25.7419 23.0235L25.7319 23.0235C26.5819 22.8135 27.4519 22.5635 28.3519 22.2935C29.2519 22.0235 30.1319 21.6935 31.0019 21.3235C31.8719 20.9535 32.7019 20.5235 33.5119 20.0235C34.3319 19.5335 35.0719 18.9435 35.7519 18.2635C37.2119 16.7935 38.2419 14.9535 38.7219 12.9335C38.8319 12.3735 38.8819 11.8035 38.8919 11.2335C38.8919 10.7135 38.8319 10.2035 38.7119 9.73347C38.5019 8.84347 38.1219 8.00347 37.5919 7.25347C37.3419 6.90347 37.0819 6.58347 36.8119 6.30347C36.0819 5.55347 35.3119 4.95347 34.5019 4.50347C33.7019 4.05347 32.8419 3.71347 31.9319 3.46347C31.0219 3.22347 30.0419 3.06347 28.9919 2.99347C27.9419 2.92347 26.8019 2.88347 25.5719 2.88347C25.3119 2.88347 25.0219 2.90347 24.7019 2.94347C24.3719 2.98347 24.0719 3.04347 23.8019 3.13347C23.5219 3.23347 23.2919 3.35347 23.1019 3.50347C22.9119 3.65347 22.8119 3.84347 22.8119 4.06347C22.8119 4.20347 22.8419 4.34347 22.8819 4.47347C22.9319 4.61347 22.9919 4.74347 23.0619 4.87347C23.1719 5.10347 23.3119 5.31347 23.4519 5.51347C23.5619 5.62347 23.7219 5.70347 23.9319 5.76347C24.1519 5.82347 24.3719 5.86347 24.5919 5.88347C24.8119 5.91347 25.0119 5.92347 25.1919 5.93347L25.5119 5.94347L21.8619 20.7435C21.3419 20.7935 20.8519 20.8535 20.3919 20.9435C19.9219 21.0235 19.4719 21.2235 19.0219 21.5435C18.7719 21.7335 18.5819 21.9335 18.4719 22.1435C18.3519 22.3535 18.3019 22.5535 18.3019 22.7535C18.3019 22.8835 18.3419 23.0135 18.4219 23.1335C18.4919 23.2435 18.6219 23.3535 18.8019 23.4435C18.9819 23.5335 19.2219 23.6135 19.5119 23.6635C19.8119 23.7135 20.1719 23.7435 20.6019 23.7435C20.9919 23.7435 21.4019 23.7235 21.8519 23.6935C22.2919 23.6535 22.7419 23.6135 23.1919 23.5535C23.6319 23.4935 24.0819 23.4235 24.5219 23.3335Z M28.8279 5.6471C28.0979 7.5371 27.4679 9.4571 26.9479 11.4071C26.4379 13.3671 25.9379 15.3371 25.4579 17.3471L25.0879 18.8871C24.9679 19.4071 24.8379 19.9271 24.7279 20.4371L25.0679 20.3571C25.7879 20.1971 26.4979 19.9971 27.1979 19.7771C28.2979 19.4471 29.3579 19.0171 30.3879 18.5071C31.5979 17.9171 32.7379 17.1871 33.7879 16.3371C34.3079 15.9071 34.7779 15.4471 35.1779 14.9571C35.5779 14.4571 35.8979 13.9471 36.1379 13.4071C36.3779 12.8571 36.4979 12.2971 36.4979 11.7171C36.4979 11.1171 36.3779 10.5571 36.1379 10.0271C35.9079 9.4871 35.5879 8.9971 35.1979 8.5471C34.8079 8.0871 34.3479 7.6871 33.8179 7.3371C33.2979 6.9771 32.7479 6.6771 32.1879 6.4171C31.6279 6.1671 31.0479 5.9771 30.4679 5.8471C29.8879 5.7171 29.3379 5.6471 28.8279 5.6471Z M41.1949 23.2535C41.1949 23.7335 41.2649 24.1235 41.4049 24.4235C41.5449 24.7335 41.8049 24.8835 42.1749 24.8835L42.5249 24.8835C42.6649 24.8835 42.8049 24.8135 42.9449 24.6835C43.0849 24.5535 43.1649 24.4035 43.1849 24.2435L44.6649 17.8435C45.3649 17.5235 46.0649 17.2135 46.7649 16.9335C47.4749 16.6435 48.1749 16.3935 48.8849 16.1835C49.5949 15.9735 50.2949 15.8135 50.9949 15.6835C51.6849 15.5635 52.3849 15.5035 53.0749 15.5035L53.3949 15.5035C53.4949 15.5035 53.5949 15.5135 53.7049 15.5235C53.8749 15.4635 54.0149 15.3435 54.1249 15.2035C54.2949 14.9535 54.4049 14.6735 54.4349 14.3735L54.4549 14.1935C54.4549 13.9335 54.3549 13.7435 54.1649 13.6035C53.9749 13.4735 53.7449 13.3735 53.4849 13.3035C53.2249 13.2435 52.9549 13.2035 52.6849 13.1935C51.3849 13.1335 50.0849 13.2535 48.8149 13.5435C47.7449 13.7935 46.6649 14.0935 45.5749 14.4635L45.7149 13.9135C45.7649 13.6935 45.8049 13.5335 45.8249 13.4335C45.8449 13.3435 45.8949 13.1635 45.9749 12.8835C46.0449 12.6035 46.1449 12.2835 46.2549 11.9135C46.3649 11.5435 46.4849 11.1535 46.6149 10.7335C46.7549 10.3135 46.8849 9.91347 47.0149 9.54347C47.1449 9.16347 47.2749 8.83347 47.3949 8.54347C47.5149 8.26347 47.6149 8.06347 47.6949 7.94347C47.8949 7.76347 48.1849 7.59347 48.5349 7.43347C48.8949 7.26347 49.2949 7.10347 49.7449 6.95347C50.1849 6.79347 50.6649 6.64347 51.1749 6.49347C51.6849 6.35347 52.1849 6.21347 52.6849 6.08347C53.1949 5.96347 53.6749 5.84347 54.1349 5.74347C54.6049 5.64347 55.0149 5.54347 55.3849 5.45347L56.1249 5.33347L56.8549 5.20347L57.4649 5.09347C57.6349 5.06347 57.7649 5.03347 57.8249 5.01347C58.2049 4.93347 58.5349 4.70347 58.7549 4.38347C58.8949 4.17347 58.9849 3.92347 59.0049 3.66347C59.0049 3.49347 58.9649 3.36347 58.8849 3.25347C58.8049 3.15347 58.6949 3.07347 58.5649 3.02347C58.4349 2.96347 58.2749 2.93347 58.0949 2.91347C57.9049 2.89347 57.7049 2.88347 57.4949 2.88347C57.0349 2.88347 56.5849 2.90347 56.1349 2.94347C55.6849 2.97347 55.2149 3.04347 54.7249 3.12347C54.2449 3.20347 53.7249 3.31347 53.1749 3.43347C52.6349 3.56347 52.0349 3.71347 51.3749 3.89347C51.2649 3.93347 51.0749 3.98347 50.8049 4.04347C50.5449 4.11347 50.2549 4.17347 49.9549 4.24347C49.6449 4.31347 49.3449 4.37347 49.0549 4.42347C48.7649 4.48347 48.5449 4.51347 48.3949 4.53347L48.2649 4.21347C48.2149 4.09347 48.1049 4.00347 47.9449 3.93347C47.7849 3.85347 47.4849 3.82347 47.0449 3.82347C46.8549 3.82347 46.6749 3.90347 46.5049 4.07347C46.3349 4.23347 46.1949 4.43347 46.0549 4.65347C45.9249 4.87347 45.8149 5.10347 45.7249 5.34347C45.6249 5.57347 45.5649 5.75347 45.5249 5.88347L45.1349 7.06347C44.5749 8.82347 44.0449 10.5935 43.5649 12.3735L42.9649 14.5435L42.9049 14.7935C42.8749 14.8935 42.8449 14.9835 42.8149 15.0835C42.7749 15.1835 42.7449 15.2735 42.6949 15.3435C42.6549 15.4235 42.6149 15.4735 42.5749 15.5035C42.2049 15.7535 41.9049 16.0035 41.6749 16.2535C41.4549 16.5035 41.3449 16.8435 41.3449 17.2735C41.3449 17.5435 41.3949 17.7735 41.5149 17.9635C41.6349 18.1435 41.7549 18.3235 41.8649 18.4935C41.8649 18.6835 41.8349 18.9735 41.7649 19.3335L41.5349 20.5635C41.4449 21.0135 41.3649 21.4735 41.2949 21.9535C41.2249 22.4235 41.1949 22.8535 41.1949 23.2535Z " /><path  id="分组 1" style="stroke:#FFFFFF; stroke-width:2; stroke-opacity:1; stroke-dasharray:0 0" transform="translate(60.03052160244147 84.25898848612957)  rotate(-12.871655547497003 29.5 12.442601470016696)" d="M8.84 0.61C8.72 0.44 8.58 0.29 8.41 0.17C8.24 0.06 8.05 0 7.84 0C7.53 0 7.29 0.06 7.11 0.19C6.92 0.31 6.76 0.48 6.64 0.67C6.51 0.87 6.4 1.08 6.32 1.31C6.24 1.54 6.15 1.76 6.05 1.96C5.99 2.08 5.89 2.16 5.76 2.2C5.62 2.25 5.47 2.29 5.29 2.33C5.1 2.37 4.92 2.42 4.73 2.48C4.54 2.54 4.36 2.65 4.2 2.79C4.04 2.93 3.91 3.13 3.81 3.39C3.64 3.87 3.61 4.39 3.71 4.89C3.78 5.2 4 5.46 4.29 5.58C4.45 5.65 4.65 5.69 4.89 5.69C4.97 5.69 5.04 5.7 5.08 5.72C5.13 5.74 5.16 5.79 5.16 5.87C5.16 5.91 5.15 5.95 5.14 5.98C4.95 6.76 4.73 7.52 4.48 8.25L3.76 10.39L3.07 12.4C2.85 13.05 2.66 13.67 2.51 14.26C2.18 15.5 1.87 16.75 1.57 17.99L1 20.33C0.86 20.92 0.67 21.48 0.43 22.03L0.19 22.56C0.11 22.71 0.06 22.88 0.02 23.05C0 23.1 0 23.16 0 23.21L0 23.38C0 23.53 0.02 23.7 0.06 23.88C0.11 24.05 0.17 24.22 0.25 24.37C0.34 24.52 0.44 24.64 0.57 24.74C0.7 24.84 0.85 24.89 1.02 24.89C1.28 24.89 1.52 24.8 1.75 24.64C1.98 24.48 2.18 24.29 2.35 24.07C2.53 23.84 2.68 23.6 2.81 23.35C2.93 23.1 3.02 22.88 3.07 22.69C3.22 22.13 3.34 21.61 3.44 21.15L3.73 19.76C3.82 19.29 3.93 18.81 4.04 18.3C4.15 17.8 4.31 17.21 4.5 16.53C4.54 16.39 4.67 16.31 4.9 16.28L5.31 16.22C6.45 16 7.6 15.76 8.78 15.51C9.95 15.25 11.09 14.94 12.21 14.57C13.33 14.2 14.41 13.75 15.45 13.2C16.48 12.66 17.43 11.99 18.3 11.19C18.61 10.91 18.89 10.59 19.14 10.24C19.39 9.89 19.55 9.51 19.63 9.1L19.73 8.59C19.82 8.17 19.86 7.76 19.86 7.37C19.86 6.61 19.67 5.94 19.3 5.35C18.93 4.76 18.44 4.25 17.85 3.81C17.26 3.38 16.6 3.02 15.86 2.75C15.13 2.48 14.39 2.27 13.66 2.14C12.25 1.9 10.82 1.76 9.39 1.73L9.15 1.18C9.07 0.98 8.96 0.79 8.84 0.61Z M17.6997 7.8086C17.6997 7.5686 17.6697 7.3486 17.6097 7.1586C17.5497 6.9686 17.4697 6.7886 17.3997 6.6386C17.0997 6.1586 16.7397 5.7886 16.2997 5.5086C15.8597 5.2386 15.3797 5.0386 14.8697 4.8986C14.3497 4.7586 13.8097 4.6686 13.2397 4.6386C12.6797 4.5986 12.1197 4.5786 11.5797 4.5786C11.4297 4.5786 11.2097 4.5886 10.9097 4.6086C10.6097 4.6286 10.2997 4.6486 9.96974 4.6786C9.64974 4.7086 9.33974 4.7486 9.06974 4.7886C8.78974 4.8386 8.59974 4.8886 8.49974 4.9486C8.44974 4.9786 8.40974 5.0186 8.37974 5.0886C8.33974 5.1586 8.31974 5.2186 8.29974 5.2686L7.97974 6.0786C7.83974 6.4186 7.68974 6.8086 7.53974 7.2386C7.37974 7.6686 7.21974 8.1286 7.04974 8.5986C6.87974 9.0786 6.70974 9.5486 6.55974 9.9986L6.12974 11.2786C6.01974 11.5986 5.91974 11.9186 5.82974 12.2386L5.74974 12.4986C5.67974 12.7086 5.62974 12.9186 5.57974 13.1286C5.55974 13.1986 5.54974 13.2586 5.54974 13.3286C5.54974 13.3786 5.55974 13.4186 5.56974 13.4486C5.58974 13.4886 5.61974 13.5086 5.66974 13.5086C5.69974 13.5086 5.78974 13.4886 5.93974 13.4686C6.09974 13.4386 6.28974 13.4086 6.50974 13.3686C6.72974 13.3286 6.96974 13.2886 7.21974 13.2386C7.46974 13.1886 7.70974 13.1386 7.94974 13.0886C9.36974 12.7786 10.7697 12.3586 12.1397 11.8586C12.8497 11.5986 13.5397 11.3186 14.1897 11.0186C14.8397 10.7086 15.4297 10.3886 15.9297 10.0486C16.4697 9.6886 16.8997 9.3286 17.2197 8.9686C17.5397 8.5986 17.6997 8.2186 17.6997 7.8086Z M24.5219 23.3335C24.9619 23.2435 25.3719 23.1435 25.7419 23.0235L25.7319 23.0235C26.5819 22.8135 27.4519 22.5635 28.3519 22.2935C29.2519 22.0235 30.1319 21.6935 31.0019 21.3235C31.8719 20.9535 32.7019 20.5235 33.5119 20.0235C34.3319 19.5335 35.0719 18.9435 35.7519 18.2635C37.2119 16.7935 38.2419 14.9535 38.7219 12.9335C38.8319 12.3735 38.8819 11.8035 38.8919 11.2335C38.8919 10.7135 38.8319 10.2035 38.7119 9.73347C38.5019 8.84347 38.1219 8.00347 37.5919 7.25347C37.3419 6.90347 37.0819 6.58347 36.8119 6.30347C36.0819 5.55347 35.3119 4.95347 34.5019 4.50347C33.7019 4.05347 32.8419 3.71347 31.9319 3.46347C31.0219 3.22347 30.0419 3.06347 28.9919 2.99347C27.9419 2.92347 26.8019 2.88347 25.5719 2.88347C25.3119 2.88347 25.0219 2.90347 24.7019 2.94347C24.3719 2.98347 24.0719 3.04347 23.8019 3.13347C23.5219 3.23347 23.2919 3.35347 23.1019 3.50347C22.9119 3.65347 22.8119 3.84347 22.8119 4.06347C22.8119 4.20347 22.8419 4.34347 22.8819 4.47347C22.9319 4.61347 22.9919 4.74347 23.0619 4.87347C23.1719 5.10347 23.3119 5.31347 23.4519 5.51347C23.5619 5.62347 23.7219 5.70347 23.9319 5.76347C24.1519 5.82347 24.3719 5.86347 24.5919 5.88347C24.8119 5.91347 25.0119 5.92347 25.1919 5.93347L25.5119 5.94347L21.8619 20.7435C21.3419 20.7935 20.8519 20.8535 20.3919 20.9435C19.9219 21.0235 19.4719 21.2235 19.0219 21.5435C18.7719 21.7335 18.5819 21.9335 18.4719 22.1435C18.3519 22.3535 18.3019 22.5535 18.3019 22.7535C18.3019 22.8835 18.3419 23.0135 18.4219 23.1335C18.4919 23.2435 18.6219 23.3535 18.8019 23.4435C18.9819 23.5335 19.2219 23.6135 19.5119 23.6635C19.8119 23.7135 20.1719 23.7435 20.6019 23.7435C20.9919 23.7435 21.4019 23.7235 21.8519 23.6935C22.2919 23.6535 22.7419 23.6135 23.1919 23.5535C23.6319 23.4935 24.0819 23.4235 24.5219 23.3335Z M28.8279 5.6471C28.0979 7.5371 27.4679 9.4571 26.9479 11.4071C26.4379 13.3671 25.9379 15.3371 25.4579 17.3471L25.0879 18.8871C24.9679 19.4071 24.8379 19.9271 24.7279 20.4371L25.0679 20.3571C25.7879 20.1971 26.4979 19.9971 27.1979 19.7771C28.2979 19.4471 29.3579 19.0171 30.3879 18.5071C31.5979 17.9171 32.7379 17.1871 33.7879 16.3371C34.3079 15.9071 34.7779 15.4471 35.1779 14.9571C35.5779 14.4571 35.8979 13.9471 36.1379 13.4071C36.3779 12.8571 36.4979 12.2971 36.4979 11.7171C36.4979 11.1171 36.3779 10.5571 36.1379 10.0271C35.9079 9.4871 35.5879 8.9971 35.1979 8.5471C34.8079 8.0871 34.3479 7.6871 33.8179 7.3371C33.2979 6.9771 32.7479 6.6771 32.1879 6.4171C31.6279 6.1671 31.0479 5.9771 30.4679 5.8471C29.8879 5.7171 29.3379 5.6471 28.8279 5.6471Z M41.1949 23.2535C41.1949 23.7335 41.2649 24.1235 41.4049 24.4235C41.5449 24.7335 41.8049 24.8835 42.1749 24.8835L42.5249 24.8835C42.6649 24.8835 42.8049 24.8135 42.9449 24.6835C43.0849 24.5535 43.1649 24.4035 43.1849 24.2435L44.6649 17.8435C45.3649 17.5235 46.0649 17.2135 46.7649 16.9335C47.4749 16.6435 48.1749 16.3935 48.8849 16.1835C49.5949 15.9735 50.2949 15.8135 50.9949 15.6835C51.6849 15.5635 52.3849 15.5035 53.0749 15.5035L53.3949 15.5035C53.4949 15.5035 53.5949 15.5135 53.7049 15.5235C53.8749 15.4635 54.0149 15.3435 54.1249 15.2035C54.2949 14.9535 54.4049 14.6735 54.4349 14.3735L54.4549 14.1935C54.4549 13.9335 54.3549 13.7435 54.1649 13.6035C53.9749 13.4735 53.7449 13.3735 53.4849 13.3035C53.2249 13.2435 52.9549 13.2035 52.6849 13.1935C51.3849 13.1335 50.0849 13.2535 48.8149 13.5435C47.7449 13.7935 46.6649 14.0935 45.5749 14.4635L45.7149 13.9135C45.7649 13.6935 45.8049 13.5335 45.8249 13.4335C45.8449 13.3435 45.8949 13.1635 45.9749 12.8835C46.0449 12.6035 46.1449 12.2835 46.2549 11.9135C46.3649 11.5435 46.4849 11.1535 46.6149 10.7335C46.7549 10.3135 46.8849 9.91347 47.0149 9.54347C47.1449 9.16347 47.2749 8.83347 47.3949 8.54347C47.5149 8.26347 47.6149 8.06347 47.6949 7.94347C47.8949 7.76347 48.1849 7.59347 48.5349 7.43347C48.8949 7.26347 49.2949 7.10347 49.7449 6.95347C50.1849 6.79347 50.6649 6.64347 51.1749 6.49347C51.6849 6.35347 52.1849 6.21347 52.6849 6.08347C53.1949 5.96347 53.6749 5.84347 54.1349 5.74347C54.6049 5.64347 55.0149 5.54347 55.3849 5.45347L56.1249 5.33347L56.8549 5.20347L57.4649 5.09347C57.6349 5.06347 57.7649 5.03347 57.8249 5.01347C58.2049 4.93347 58.5349 4.70347 58.7549 4.38347C58.8949 4.17347 58.9849 3.92347 59.0049 3.66347C59.0049 3.49347 58.9649 3.36347 58.8849 3.25347C58.8049 3.15347 58.6949 3.07347 58.5649 3.02347C58.4349 2.96347 58.2749 2.93347 58.0949 2.91347C57.9049 2.89347 57.7049 2.88347 57.4949 2.88347C57.0349 2.88347 56.5849 2.90347 56.1349 2.94347C55.6849 2.97347 55.2149 3.04347 54.7249 3.12347C54.2449 3.20347 53.7249 3.31347 53.1749 3.43347C52.6349 3.56347 52.0349 3.71347 51.3749 3.89347C51.2649 3.93347 51.0749 3.98347 50.8049 4.04347C50.5449 4.11347 50.2549 4.17347 49.9549 4.24347C49.6449 4.31347 49.3449 4.37347 49.0549 4.42347C48.7649 4.48347 48.5449 4.51347 48.3949 4.53347L48.2649 4.21347C48.2149 4.09347 48.1049 4.00347 47.9449 3.93347C47.7849 3.85347 47.4849 3.82347 47.0449 3.82347C46.8549 3.82347 46.6749 3.90347 46.5049 4.07347C46.3349 4.23347 46.1949 4.43347 46.0549 4.65347C45.9249 4.87347 45.8149 5.10347 45.7249 5.34347C45.6249 5.57347 45.5649 5.75347 45.5249 5.88347L45.1349 7.06347C44.5749 8.82347 44.0449 10.5935 43.5649 12.3735L42.9649 14.5435L42.9049 14.7935C42.8749 14.8935 42.8449 14.9835 42.8149 15.0835C42.7749 15.1835 42.7449 15.2735 42.6949 15.3435C42.6549 15.4235 42.6149 15.4735 42.5749 15.5035C42.2049 15.7535 41.9049 16.0035 41.6749 16.2535C41.4549 16.5035 41.3449 16.8435 41.3449 17.2735C41.3449 17.5435 41.3949 17.7735 41.5149 17.9635C41.6349 18.1435 41.7549 18.3235 41.8649 18.4935C41.8649 18.6835 41.8349 18.9735 41.7649 19.3335L41.5349 20.5635C41.4449 21.0135 41.3649 21.4735 41.2949 21.9535C41.2249 22.4235 41.1949 22.8535 41.1949 23.2535Z " /><g opacity="1" transform="translate(126.45317495993088 128.59563249830424)  rotate(45 50.75714285714285 29.38571428571429)"><path id="矩形 4" fill-rule="evenodd" style="fill:#353634" transform="translate(0 0)  rotate(0 50.75714285714285 29.38571428571429)" opacity="1" d="M10.7,58.77L90.82,58.77C96.72,58.77 101.51,53.98 101.51,48.08L101.51,10.7C101.51,4.79 96.73,0 90.82,0L10.7,0C7.86,0 5.14,1.13 3.13,3.13C1.13,5.14 0,7.86 0,10.7L0,48.08C0,53.99 4.79,58.77 10.7,58.77Z " /><path id="文本 5" fill-rule="evenodd" style="fill:#FFFFFF" transform="translate(19.36099502131311 17.36270137641829)  rotate(0 11.766652832031252 8.285646158854167)" opacity="1" d="M6.79 9.36C5.98 11.62 5.04 13.81 5.04 13.81L5 13.75L4.93 13.81C4.58 13.96 4.07 13.93 4.07 13.93L3.97 13.93C3.51 13.81 3.32 13.52 3.32 13.52L3.32 13.48L3.3 13.52C2.86 11.51 2.61 9.48 2.61 9.48C2.51 8.79 2.44 8.06 2.44 8.06C2.28 9.4 2.21 10.74 2.21 10.74C2.05 13.45 1.59 16.11 1.59 16.11L1.57 16.03L1.46 16.11C1.17 16.26 0.71 16.23 0.71 16.23L0.63 16.23C0.23 16.11 0.06 15.84 0.06 15.84L0.04 15.79L0 15.32L0 15.31C0.27 11.49 0.71 7.69 0.71 7.69C1.15 3.92 1.84 0.2 1.84 0.2L1.88 0.27L1.98 0.2C2.26 0.04 2.76 0.08 2.76 0.08L2.88 0.08C3.32 0.2 3.51 0.46 3.51 0.46L3.53 0.52L3.53 0.98C3.41 1.33 3.45 1.71 3.45 1.71C4.07 3.94 4.28 6.22 4.28 6.22C4.43 7.77 4.62 9.32 4.62 9.32C5.35 7.31 6.25 5.37 6.25 5.37C7.44 2.73 8.57 0.12 8.57 0.12L8.63 0.18L8.72 0.12C9.09 -0.03 9.53 0 9.53 0L9.64 0C10.12 0.16 10.28 0.5 10.28 0.5L10.3 0.56L10.3 0.94C9.95 2.67 9.76 4.45 9.76 4.45C9.57 6.24 9.45 8.02 9.45 8.02L9.45 10.68C9.41 11.76 9.34 12.81 9.34 12.81C9.26 13.87 9.26 14.98 9.26 14.98L9.3 16.11L9.28 16.19C9.11 16.46 8.71 16.57 8.71 16.57L8.15 16.57C7.73 16.46 7.54 16.19 7.54 16.19L7.52 16.13L7.42 15.13L7.42 13.48L7.63 10.67L7.63 7.98L7.75 6.83C7.23 8.1 6.79 9.36 6.79 9.36ZM13.24 14.44L13.26 14.5L13.06 14.83L13.04 14.88C13.04 14.88 12.99 15.31 13.22 15.61L13.26 15.69L13.85 16.02L13.97 16C13.97 16 15.67 15.77 17.34 14.94C17.34 14.94 18.95 14.14 20.43 13.02C20.43 13.02 21.58 12.05 22.36 10.93C22.36 10.93 23.17 9.8 23.51 8.46L23.53 8.42L23.53 6.73C23.53 6.73 23.38 5.6 23.07 4.57C23.07 4.57 22.79 3.49 22.23 2.5L22.21 2.44L22.15 2.4C22.15 2.4 21.35 1.71 20.41 1.02C20.41 1.02 19.37 0.25 18.11 0.04L18.05 0.04C18.05 0.04 17.01 0 16.07 0.1C16.07 0.1 15.15 0.2 14.33 0.39L14.33 0.41L14.31 0.41C14.31 0.41 13.83 0.56 13.62 1.04L13.58 1.12L13.58 1.54L13.6 1.6C13.6 1.6 13.77 1.98 14.18 2.13L14.23 2.17L14.33 2.15C14.33 2.15 14.73 2.13 15.15 2.04C15.15 2.04 14.58 5.01 14.16 7.96C14.16 7.96 13.7 11.16 13.24 14.37L13.24 14.44ZM21.29 4.63C21.29 4.63 21.56 5.64 21.75 6.73L21.75 8.21C21.75 8.21 21.5 8.96 21.1 9.67C21.1 9.67 20.16 11.01 18.86 12.04C18.86 12.04 17.57 13.06 16.04 13.81L15.19 14.12C15.19 14.12 15.54 10.97 16.02 7.87C16.02 7.87 16.52 4.64 17.24 1.46C17.24 1.46 18.09 1.4 18.68 1.79C18.68 1.79 19.49 2.29 20.24 2.84C20.24 2.84 21 3.65 21.29 4.63Z" /><path  id="文本 5" style="stroke:#FFFFFF; stroke-width:1; stroke-opacity:1; stroke-dasharray:0 0" transform="translate(19.36099502131311 17.36270137641829)  rotate(0 11.766652832031252 8.285646158854167)" d="M5.04,13.81C5.04,13.81 5.98,11.62 6.79,9.36C6.79,9.36 7.23,8.1 7.75,6.83L7.63,7.98L7.63,10.67L7.42,13.48L7.42,15.13L7.52,16.13L7.54,16.19C7.54,16.19 7.73,16.46 8.15,16.57L8.21,16.57L8.65,16.57L8.71,16.57C8.71,16.57 9.11,16.46 9.28,16.19L9.3,16.11L9.26,14.98C9.26,14.98 9.26,13.87 9.34,12.81C9.34,12.81 9.41,11.76 9.45,10.68L9.45,8.02C9.45,8.02 9.57,6.24 9.76,4.45C9.76,4.45 9.95,2.67 10.3,0.94L10.3,0.91L10.3,0.56L10.28,0.5C10.28,0.5 10.12,0.16 9.64,0L9.59,0L9.53,0C9.53,0 9.09,-0.03 8.72,0.12L8.63,0.18L8.57,0.12C8.57,0.12 7.44,2.73 6.25,5.37C6.25,5.37 5.35,7.31 4.62,9.32C4.62,9.32 4.43,7.77 4.28,6.22C4.28,6.22 4.07,3.94 3.45,1.71C3.45,1.71 3.41,1.33 3.53,0.98L3.53,0.94L3.53,0.52L3.51,0.46C3.51,0.46 3.32,0.2 2.88,0.08L2.82,0.08L2.76,0.08C2.76,0.08 2.26,0.04 1.98,0.2L1.88,0.27L1.84,0.2C1.84,0.2 1.15,3.92 0.71,7.69C0.71,7.69 0.27,11.49 0,15.31L0,15.32L0.04,15.79L0.06,15.84C0.06,15.84 0.23,16.11 0.63,16.23L0.67,16.23L0.71,16.23C0.71,16.23 1.17,16.26 1.46,16.11L1.57,16.03L1.59,16.11C1.59,16.11 2.05,13.45 2.21,10.74C2.21,10.74 2.28,9.4 2.44,8.06C2.44,8.06 2.51,8.79 2.61,9.48C2.61,9.48 2.86,11.51 3.3,13.52L3.32,13.48L3.32,13.52C3.32,13.52 3.51,13.81 3.97,13.93L4.01,13.93L4.07,13.93C4.07,13.93 4.58,13.96 4.93,13.81L5,13.75L5.04,13.81Z M13.24,14.44L13.26,14.5L13.06,14.83L13.04,14.88C13.04,14.88 12.99,15.31 13.22,15.61L13.26,15.69L13.85,16.02L13.97,16C13.97,16 15.67,15.77 17.34,14.94C17.34,14.94 18.95,14.14 20.43,13.02C20.43,13.02 21.58,12.05 22.36,10.93C22.36,10.93 23.17,9.8 23.51,8.46L23.53,8.42L23.53,6.75L23.53,6.73C23.53,6.73 23.38,5.6 23.07,4.57C23.07,4.57 22.79,3.49 22.23,2.5L22.21,2.44L22.15,2.4C22.15,2.4 21.35,1.71 20.41,1.02C20.41,1.02 19.37,0.25 18.11,0.04L18.09,0.04L18.05,0.04C18.05,0.04 17.01,0 16.07,0.1C16.07,0.1 15.15,0.2 14.33,0.39L14.33,0.41L14.31,0.41C14.31,0.41 13.83,0.56 13.62,1.04L13.58,1.12L13.58,1.54L13.6,1.6C13.6,1.6 13.77,1.98 14.18,2.13L14.23,2.17L14.33,2.15C14.33,2.15 14.73,2.13 15.15,2.04C15.15,2.04 14.58,5.01 14.16,7.96C14.16,7.96 13.7,11.16 13.24,14.37L13.24,14.44Z M21.75,6.73C21.56,5.64 21.29,4.63 21.29,4.63C21,3.65 20.24,2.84 20.24,2.84C19.49,2.29 18.68,1.79 18.68,1.79C18.09,1.4 17.24,1.46 17.24,1.46C16.52,4.64 16.02,7.87 16.02,7.87C15.54,10.97 15.19,14.12 15.19,14.12L16.04,13.81C17.57,13.06 18.86,12.04 18.86,12.04C20.16,11.01 21.1,9.67 21.1,9.67C21.5,8.96 21.75,8.21 21.75,8.21L21.75,6.73Z " /></g><g opacity="1" transform="translate(28.050000000000004 107.62811425200859)  rotate(0 74.8 113.86964285714286)"><mask id="mask-3" fill="white"><use xlink:href="#path_3"></use></mask><g mask="url(#mask-3)"><path id="路径 1" fill-rule="evenodd" fill="url(#linear_17)" transform="translate(0 0)  rotate(0 74.8 113.86964285714286)" opacity="1" d="M0,0L6.68,177.65L149.6,227.74L149.6,54.76z " /></g><g mask="url(#mask-3)"><path id="路径 1" fill-rule="evenodd" fill="url(#linear_18)" transform="translate(0 0)  rotate(0 74.8 114.82873317270217)" opacity="0.2" d="M0,0L136.24,221.39L149.6,229.66L149.6,54.76z " /></g><g mask="url(#mask-3)"><path id="路径 1" fill-rule="evenodd" fill="url(#linear_19)" transform="translate(0 0)  rotate(0 74.8 72.7876209039503)" opacity="0.34" d="M0,0L24.86,101.93L136.24,145.58L149.6,54.76z " /></g></g><g opacity="1" transform="translate(177.65 96.94239996629429)  rotate(0 63.44642857142857 119.2125)"><mask id="mask-4" fill="white"><use xlink:href="#path_4"></use></mask><g mask="url(#mask-4)"><path id="路径 1" fill-rule="evenodd" fill="url(#linear_20)" transform="translate(0 0)  rotate(0 63.44642857142857 119.2125)" opacity="1" d="M0,238.43L120.21,179.86L126.89,0L0,65.45z " /></g><g mask="url(#mask-4)"><path id="路径 1" fill-rule="evenodd" fill="url(#linear_21)" transform="translate(0 0)  rotate(0 77.43346911791892 75.47620262126641)" opacity="1" d="M34.65,150.95L154.87,92.38L126.89,0L0,65.45z " /></g><g mask="url(#mask-4)"><path id="路径 1" fill-rule="evenodd" fill="url(#linear_22)" transform="translate(0 0)  rotate(0 63.44642857142857 106.48051888698787)" opacity="1" d="M126.89,0L0,65.45L58.77,212.96L120.88,186.25z " /></g><g mask="url(#mask-4)"><path id="路径 1" fill-rule="evenodd" fill="url(#linear_23)" transform="translate(54.76428571428573 145.59285714285716)  rotate(0 31.389285714285755 32.391071428571415)" opacity="1" d="M46.08,13.36C38.74,4.67 29.39,0 29.39,0L0,64.78L62.78,39.4C62.78,39.4 57.25,26.55 46.08,13.36z " /><path id="路径 1" fill-rule="evenodd" fill="url(#linear_24)" transform="translate(54.76428571428573 145.59285714285716)  rotate(0 31.389285714285755 32.391071428571415)" opacity="1" d="M46.08,13.36C38.74,4.67 29.39,0 29.39,0L0,64.78L62.78,39.4C62.78,39.4 57.25,26.55 46.08,13.36z " /></g></g><path id="路径 1" fill-rule="evenodd" fill="url(#linear_25)" transform="translate(0 107.62811425200859)  rotate(0 88.82499999999995 59.439285714285724)" opacity="1" d="M28.05,0L0,66.79L147.6,118.88L177.65,54.76z " /><path id="路径 1" fill-rule="evenodd" fill="url(#linear_26)" transform="translate(177.65 96.94239996629427)  rotate(0 80.47678571428573 65.11607142857137)" opacity="1" d="M36.06,130.23L160.95,65.45L126.89,0L0,65.45z " /><path id="路径 1" fill-rule="evenodd" fill="url(#linear_27)" transform="translate(293.2671625833229 96.94239996629427)  rotate(0 9.092502711288352 6.0003299460097015)" opacity="0.4" d="M0,5.34L18.19,12L11.28,0z " /></g><g opacity="1" transform="translate(209.70714285714286 238.93693774027005)  rotate(0 40.05487800182263 49.978468154192015)"><g opacity="1" transform="translate(0 0)  rotate(0 40.05487800182263 49.97846815419202)"><path id="矩形 7" fill-rule="evenodd" fill="url(#linear_28)" transform="translate(10.276592640310016 6.088748740379242)  rotate(-15 29.259612585138424 43.5578060253835)" opacity="1" d="M13.02,86.89C28.46,83.67 55.15,74.18 55.15,74.18L58.52,6.37C58.52,6.37 52.93,-1.17 45.67,0.16L6.35,9.5C1.56,10.83 -0.33,12.17 0.05,32.78C0.42,53.4 0.32,65.65 0.34,76.34C0.36,85.03 7.66,88.01 13.02,86.89z " /><path id="矩形 7" fill-rule="evenodd" fill="url(#linear_29)" transform="translate(15.21206493492629 5.832601798335221)  rotate(-15 27.17909901448597 44.299670359774346)" opacity="1" d="M5.222302315188328e-16,80.0706730915913C0,82.12481329061497 0.9443390360891266,84.06491905599972 2.5610052432589168,85.33215318268674C4.177671450428706,86.59938730937377 6.287168204830988,87.05305022291986 8.281866122880574,86.56246672037047L48.251839347456674,76.73210128814954C51.83758984235317,75.85020833526845 54.3582,72.63455530202043 54.358200000000004,68.94194893361454L54.3582,8.528666908408692C54.3582,6.474526709385026 53.41386096391088,4.534420944000277 51.797194756741085,3.2671868173132514C50.1805285495713,1.999952690626226 48.07103179516902,1.5462897770801352 46.07633387711943,2.0368732796295195L6.106360652543323,11.867238711850453C2.5206101576468285,12.749131664731543 1.7763568394002505e-15,15.96478469797956 0,19.657391066385458z " /></g><path  id="路径 2" style="stroke:#000000; stroke-width:3.342625; stroke-opacity:1; stroke-dasharray:0 0" transform="translate(35.1546984497799 37.55281594571894)  rotate(0 10.509589254834122 20.393034839943468)" d="M0,40.79L4.78,21.4L14.96,26.5L21.02,0 " /><path  id="路径 4" style="stroke:#000000; stroke-width:3.342625; stroke-opacity:1; stroke-dasharray:0 0" transform="translate(20.79136224358498 31.56940753542045)  rotate(0 7.304962303006193 9.2045303093858)" d="M2.1081883652861277,12.511439437259602C2.5668335260472555,13.937637402914064 3.6526583626759606,15.075693806821796 5.055751528140648,15.600789597847406C6.458844693605336,16.125885388873016 8.025050729253701,15.980329185934806 9.30735,15.205665L9.307350000000001,15.205665000000003C12.410686740843374,13.330873455723555 13.807954797648035,9.561232129552714 12.676302178729772,6.1166850458776665L12.573334023503673,5.803268496606117C12.103928392146571,4.374482161010201 11.020558434886139,3.23023589962249 9.619541290113755,2.683497388459064C8.218524145341371,2.1367588772956383 6.646478036218219,2.2447449957784826 5.33338,2.97792L5.33338,2.97792C2.23174614727155,4.709733124644618 0.7825266336598045,8.389176244394188 1.8700656893844796,11.770975773839416z " /></g><g opacity="1" transform="translate(23.155504449533513 257.11600916884146)  rotate(0 45.68917762986374 29.82648222500929)"><path id="路径 8" fill-rule="evenodd" fill="url(#linear_30)" transform="translate(57.85224274881057 0.9495060204957099)  rotate(0 16.515129931235307 27.493494432230737)" opacity="1" d="M8.43,51.5L11.94,51.5L33.03,54.99L0,0z " /><path id="路径 8" fill-rule="evenodd" fill="url(#linear_31)" transform="translate(19.841774269171598 14.424856273571317)  rotate(0 10.3122383112385 12.24667642797309)" opacity="1" d="M12.7,7.37C7.62,2.32 0,0 0,0L0,23.76C0,23.76 9.46,25.41 14.35,23.76C17.45,22.7 20.62,22.65 20.62,22.65C20.62,18.99 16.78,11.42 12.7,7.37z " /><path id="路径 8" fill-rule="evenodd" fill="url(#linear_32)" transform="translate(41.82434508996367 38.76060190198615)  rotate(0 24.77700508488191 10.238527601382883)" opacity="1" d="M0,6.05L30.31,20.48L49.55,17.39L0,0z " /><path id="路径 8" fill-rule="evenodd" fill="url(#linear_33)" transform="translate(13.510347608441743 28.7035817354914)  rotate(0 12.388502542440955 6.123165670865481)" opacity="1" d="M15.47,12.01C20.12,11.37 24.78,8.69 24.78,8.69L0,0L5.4,12.01C5.4,12.01 11.65,12.54 15.47,12.01z " /><g opacity="1" transform="translate(29.44492412189507 0)  rotate(0 21.445084242560338 29.826482225009293)"><path id="减去顶层" fill-rule="evenodd" fill="url(#linear_34)" transform="translate(2.4313827708349693 0.026678735732878066)  rotate(0 20.22939285714286 29.81314285714286)" opacity="1" d="M21.73,0h4.01l14.72,59.31l-4.04,0.31l-36.42,-14.32z M31.1785,48.75718l-7.66,-32.58l-13.58,25.95z " /><path id="减去顶层" fill-rule="evenodd" style="fill:#ADBBFF" transform="translate(0 0)  rotate(0 19.327785714285717 29.72632142857143)" opacity="1" d="M0,46.17l24.16,-46.17l14.49,59.46z M21.94274,16.20385l-13.58,25.95l21.24,6.63z " /></g><path id="路径 4" fill-rule="evenodd" fill="url(#linear_35)" transform="translate(3.3049955504665065 8.708857142857157)  rotate(-2 14.609924606012386 18.4090606187716)" opacity="1" d="M18.55309,5.955844999999999C15.926894046690336,4.489493827053421 12.782801398479618,4.273520514555479 9.980766343557733,5.366996851094486C7.178731288635847,6.460473187633493 5.011990390742163,8.748965471570425 4.073178261837134,11.606538346267179L3.867239143255274,12.233379458540487C1.603932264329341,19.12247275548867 4.398469710117993,26.661755513148414 10.605144999999986,30.411335L10.605145,30.411335C13.169745531590426,31.960662634538288 16.302158988515604,32.251773948674874 19.108346328199538,31.201581289980506C21.914533667883468,30.15138863128614 24.086184108280236,27.875274788116425 25.00347516834102,25.022877705501436L25.479716514058396,23.541963430533063C27.65479597166175,16.778362901261104 24.756358049761612,9.419474349289978 18.553090000000008,5.9558449999999965z " /><path id="路径 4" fill-rule="evenodd" fill="url(#linear_36)" transform="translate(0.6335669790379358 8.708857142857157)  rotate(-2 14.609924606012386 18.4090606187716)" opacity="1" d="M18.55309,5.955844999999999C15.926894046690336,4.489493827053421 12.782801398479618,4.273520514555479 9.980766343557733,5.366996851094486C7.178731288635847,6.460473187633493 5.011990390742163,8.748965471570425 4.073178261837134,11.606538346267179L3.867239143255274,12.233379458540487C1.603932264329341,19.12247275548867 4.398469710117993,26.661755513148414 10.605144999999986,30.411335L10.605145,30.411335C13.169745531590426,31.960662634538288 16.302158988515604,32.251773948674874 19.108346328199538,31.201581289980506C21.914533667883468,30.15138863128614 24.086184108280236,27.875274788116425 25.00347516834102,25.022877705501436L25.479716514058396,23.541963430533063C27.65479597166175,16.778362901261104 24.756358049761612,9.419474349289978 18.553090000000008,5.9558449999999965z " /></g></g></svg>